# xmcd
#
# Track frame offsets:
#	150
#	12999
#	28849
#	40747
#	56530
#	69934
#	88037
#	103328
#	115119
#	130470
#
# Disc length: 1886 seconds
#
# Revision: 0
# Processed by: cddbd v1.5.2PL0 Copyright (c) Steve Scherf et al.
# Submitted via: audiograbber 1.83.01
#
DISCID=84075c0a
DTITLE=Del McCoury - Celebrating 50 Years Of - CD4
DYEAR=2009
DGENRE=Bluegrass
TTITLE0=Cold Hard Facta
TTITLE1=Black Jack Country Chains
TTITLE2=A Far Cry
TTITLE3=Backslidin' Blues
TTITLE4=50 50 Chance
TTITLE5=City of Stone
TTITLE6=Never Grow Up Boy
TTITLE7=Asheville Turnaround
TTITLE8=Learnin' the Blues
TTITLE9=Cheek to Cheek With the Blues
EXTD=
EXTT0=
EXTT1=
EXTT2=
EXTT3=
EXTT4=
EXTT5=
EXTT6=
EXTT7=
EXTT8=
EXTT9=
PLAYORDER=
